<svg version="1.1" preserveAspectRatio="none" xmlns="http://www.w3.org/2000/svg" width="500" height="500" viewBox="0 0 500 500"><rect width="100%" height="100%" fill="#E71616" fill-opacity="1"/><svg viewBox="74.9327 103.8771 221.4684 220" width="333" height="330.7921130057381" x="83.5px" y="84.6039px" xmlns="http://www.w3.org/2000/svg" xmlns:xlink="http://www.w3.org/1999/xlink" preserveAspectRatio="none"><defs></defs><style>.atBXipXk0bfillColor {fill:#FBFBFB;fill-opacity:0;}.companyName {fill:#FBFBFB;fill-opacity:1;}.icon3-str {stroke:#277B27;stroke-opacity:1;}.shapeStroke-str {stroke:#FBFBFB;stroke-opacity:1;}</style><g opacity="1" transform="rotate(0 74.9327 103.8771)">
<svg width="221.4684" height="220" x="74.9327" y="103.8771" version="1.1" preserveAspectRatio="none" viewBox="0 0 221.4684 220">
  <defs><rect x="4.4" y="4.4" width="212.6684" height="211.2" rx="14px" ry="14px" id="id-tBXipXk0b1701369354473"></rect></defs><use class="atBXipXk0bfillColor shapeStroke-str" style="stroke-width:8.8;" xlink:href="#id-tBXipXk0b1701369354473"></use>
</svg>
</g><g opacity="1" transform="rotate(0 94.9327 123.8771)">
<svg width="181.4684" height="180" x="94.9327" y="123.8771" version="1.1" preserveAspectRatio="none" viewBox="0.8 -28 84.04 83.36">
  <g transform="matrix(1 0 0 1 0 0)" class="companyName"><path id="id-D6z1nYkh7" d="M0.80 0L0.80 0ZM29.36-3.60L34.16-3.60L34.16 0L6.40 0Q4.32 0 3.10-0.80Q1.88-1.60 1.34-3.38Q0.80-5.16 0.80-8.24L0.80-8.24Q0.80-10.04 1.10-12.02Q1.40-14 1.92-15.36L1.92-15.36L4.96-14.84Q4-11.60 4-8.88L4-8.88Q4-5.56 4.64-3.60L4.64-3.60L26.16-3.60L26.16-18.80L29.36-18.80L29.36-3.60ZM15.56 8Q14.96 8.04 14.16 7.24Q13.36 6.44 13.36 5.80L13.36 5.80Q13.36 5.16 14.14 4.40Q14.92 3.64 15.56 3.60L15.56 3.60Q16.20 3.64 16.98 4.40Q17.76 5.16 17.76 5.80L17.76 5.80Q17.76 6.40 16.96 7.22Q16.16 8.04 15.56 8L15.56 8Z M42.16-3.60L46.96-3.60L46.96 0L32.56 0L32.56-3.60L38.96-3.60L38.96-25.20L42.16-25.20L42.16-3.60Z M46.16 0L46.16 0ZM45.36-3.60L51.76-3.60Q51.36-5.72 51.36-10.40L51.36-10.40Q51.36-13.96 52.06-15.82Q52.76-17.68 54.52-18.44Q56.28-19.20 59.76-19.20L59.76-19.20Q61.96-19.20 63.84-18.92Q65.72-18.64 68.12-17.96L68.12-17.96L68.12 0L45.36 0L45.36-3.60ZM63.08-3.60Q64.12-3.60 64.52-4.02Q64.92-4.44 64.92-5.60L64.92-5.60L64.92-15.52L56.60-15.52Q55.52-15.52 55.14-15.08Q54.76-14.64 54.76-13.32L54.76-13.32L54.76-3.60L63.08-3.60ZM56.88-23.60Q56.28-23.56 55.48-24.36Q54.68-25.16 54.68-25.80L54.68-25.80Q54.68-26.44 55.46-27.20Q56.24-27.96 56.88-28L56.88-28Q57.52-27.96 58.30-27.20Q59.08-26.44 59.08-25.80L59.08-25.80Q59.08-25.20 58.28-24.38Q57.48-23.56 56.88-23.60L56.88-23.60ZM62.64-23.60Q62.04-23.56 61.24-24.36Q60.44-25.16 60.44-25.80L60.44-25.80Q60.44-26.44 61.22-27.20Q62-27.96 62.64-28L62.64-28Q63.28-27.96 64.06-27.20Q64.84-26.44 64.84-25.80L64.84-25.80Q64.84-25.20 64.04-24.38Q63.24-23.56 62.64-23.60L62.64-23.60Z M22.20 38.40L27 38.40L27 42L4.64 42Q4 44.28 4 47.68L4 47.68Q4 50.32 5.12 54.76L5.12 54.76L2 55.36Q1.48 53.80 1.14 51.48Q0.80 49.16 0.80 47L0.80 47Q0.80 42.52 1.76 40.56Q2.72 38.60 5.04 38.44L5.04 38.44Q4.40 36.32 4.40 32.88L4.40 32.88Q4.40 28.88 6.16 24.40L6.16 24.40Q7.72 23.68 10.08 23.24Q12.44 22.80 14.84 22.80L14.84 22.80Q17.60 22.80 19.20 23.30Q20.80 23.80 21.50 24.92Q22.20 26.04 22.20 28L22.20 28L22.20 38.40ZM19 38.40L19 26.84Q17.36 26.40 14.56 26.40L14.56 26.40Q11.60 26.40 8.60 27.04L8.60 27.04Q7.60 30.44 7.60 32.88L7.60 32.88Q7.60 36.28 8.32 38.40L8.32 38.40L19 38.40Z M26.20 42L26.20 42ZM35 38.40L39.80 38.40L39.80 42L25.40 42L25.40 38.40L31.80 38.40L31.80 23.20L35 23.20L35 38.40ZM30.32 49.60Q29.72 49.64 28.92 48.84Q28.12 48.04 28.12 47.40L28.12 47.40Q28.12 46.76 28.90 46Q29.68 45.24 30.32 45.20L30.32 45.20Q30.96 45.24 31.74 46Q32.52 46.76 32.52 47.40L32.52 47.40Q32.52 48 31.72 48.82Q30.92 49.64 30.32 49.60L30.32 49.60ZM36.08 49.60Q35.48 49.64 34.68 48.84Q33.88 48.04 33.88 47.40L33.88 47.40Q33.88 46.76 34.66 46Q35.44 45.24 36.08 45.20L36.08 45.20Q36.72 45.24 37.50 46Q38.28 46.76 38.28 47.40L38.28 47.40Q38.28 48 37.48 48.82Q36.68 49.64 36.08 49.60L36.08 49.60Z M47.80 38.40L52.60 38.40L52.60 42L38.20 42L38.20 38.40L44.60 38.40L44.60 16.80L47.80 16.80L47.80 38.40Z M83.76 23.28Q84.20 24.92 84.52 27.38Q84.84 29.84 84.84 31.64L84.84 31.64Q84.84 35.76 84.24 37.94Q83.64 40.12 82.12 41.06Q80.60 42 77.64 42L77.64 42Q75.04 42 73.52 41.70Q72 41.40 71.12 40.64L71.12 40.64Q70.28 41.40 68.74 41.70Q67.20 42 64.60 42L64.60 42L51 42L51 38.40L57.40 38.40L57.40 26.80L60.60 26.80L60.60 38.40L66.40 38.40Q68.16 38.40 68.84 37.96Q69.52 37.52 69.52 36.28L69.52 36.28L69.52 26.80L72.72 26.80L72.72 36.28Q72.72 37.52 73.40 37.96Q74.08 38.40 75.84 38.40L75.84 38.40L81.16 38.40Q81.64 35.88 81.64 31.76L81.64 31.76Q81.64 28.40 80.60 23.80L80.60 23.80L83.76 23.28Z"/></g>
</svg>
</g></svg></svg>